<svg xmlns="http://www.w3.org/2000/svg" viewBox="0 0 960 400" width="960" height="400" role="img" aria-labelledby="t d" font-family="'JetBrains Mono','SF Mono',Menlo,Consolas,'Liberation Mono',monospace">
<title id="t">Commit Ultra-Trail</title>
<desc id="d">4861 GitHub contributions over 53 weeks drawn as a trail elevation profile. Summit: 769 contributions in the week of 2026-08-16.</desc>
<defs><linearGradient id="sky" x1="0" x2="0" y1="0" y2="1"><stop offset="0" stop-color="#dce8ff"/><stop offset="1" stop-color="#ffffff"/></linearGradient><linearGradient id="fill" x1="0" x2="0" y1="0" y2="1"><stop offset="0" stop-color="#3643ba" stop-opacity=".38"/><stop offset="1" stop-color="#3643ba" stop-opacity="0"/></linearGradient><radialGradient id="glow"><stop offset="0" stop-color="#e8590c" stop-opacity=".6"/><stop offset="1" stop-color="#e8590c" stop-opacity="0"/></radialGradient><linearGradient id="beam"><stop offset="0" stop-color="#e8590c" stop-opacity=".7"/><stop offset="1" stop-color="#e8590c" stop-opacity="0"/></linearGradient><clipPath id="frame"><rect width="960" height="400" rx="12"/></clipPath></defs>
<g clip-path="url(#frame)">
<rect width="960" height="400" fill="url(#sky)"/>
<circle cx="538" cy="46" r="18" fill="#ffc53d" opacity=".9"/>
<path d="M0,280 L0,244.0 L40,219.1 L80,199.0 L120,187.6 L160,187.2 L200,197.9 L240,217.5 L280,242.2 L320,220.7 L360,200.1 L400,188.1 L440,186.9 L480,196.8 L520,215.9 L560,240.5 L600,222.3 L640,201.3 L680,188.6 L720,186.6 L760,195.8 L800,214.4 L840,238.7 L880,223.9 L920,202.5 L960,189.1 L960,280 Z" fill="#e8590c" opacity="0.05"/>
<path d="M0,280 L0,187.3 L40,181.5 L80,180.1 L120,183.2 L160,190.5 L200,201.3 L240,214.5 L280,223.1 L320,209.0 L360,196.6 L400,187.1 L440,181.4 L480,180.1 L520,183.3 L560,190.7 L600,201.6 L640,214.9 L680,222.7 L720,208.7 L760,196.3 L800,186.9 L840,181.3 L880,180.1 L920,183.5 L960,191.0 L960,280 Z" fill="#e8590c" opacity="0.08"/>
<path d="M0,280 L0,177.1 L40,181.4 L80,187.3 L120,194.5 L160,202.4 L200,205.4 L240,197.2 L280,189.8 L320,183.4 L360,178.4 L400,175.3 L440,174.0 L480,174.8 L520,177.5 L560,182.0 L600,188.1 L640,195.4 L680,203.4 L720,204.4 L760,196.3 L800,188.9 L840,182.7 L880,178.0 L920,175.0 L960,174.0 L960,280 Z" fill="#e8590c" opacity="0.11"/>
<line x1="40" x2="932" y1="236.8" y2="236.8" stroke="#d1d9e0" stroke-dasharray="2 5"/>
<line x1="40" x2="932" y1="193.5" y2="193.5" stroke="#d1d9e0" stroke-dasharray="2 5"/>
<line x1="40" x2="932" y1="150.3" y2="150.3" stroke="#d1d9e0" stroke-dasharray="2 5"/>
<line x1="40" x2="932" y1="107.0" y2="107.0" stroke="#d1d9e0" stroke-dasharray="2 5"/>
<text x="40" y="34" fill="#1f2328" font-size="16" font-weight="800" letter-spacing="1">MORNATI COMMIT ULTRA</text>
<text x="40" y="52" fill="#59636e" font-size="11">53 weeks · on fire · 19-day streak</text>
<text x="932" y="34" fill="#3643ba" font-size="16" font-weight="800" text-anchor="end">D+ 4,861 m</text>
<path d="M40.0,275.8 C48.6,275.8 48.6,274.0 57.2,274.0 C65.7,274.0 65.7,235.5 74.3,235.5 C82.9,235.5 82.9,202.9 91.5,202.9 C100.0,202.9 100.0,181.4 108.6,181.4 C117.2,181.4 117.2,168.9 125.8,168.9 C134.3,168.9 134.3,173.2 142.9,173.2 C151.5,173.2 151.5,196.2 160.1,196.2 C168.7,196.2 168.7,228.6 177.2,228.6 C185.8,228.6 185.8,242.6 194.4,242.6 C203.0,242.6 203.0,235.1 211.5,235.1 C220.1,235.1 220.1,197.8 228.7,197.8 C237.3,197.8 237.3,161.2 245.8,161.2 C254.4,161.2 254.4,172.9 263.0,172.9 C271.6,172.9 271.6,197.2 280.2,197.2 C288.7,197.2 288.7,194.1 297.3,194.1 C305.9,194.1 305.9,208.3 314.5,208.3 C323.0,208.3 323.0,226.4 331.6,226.4 C340.2,226.4 340.2,231.8 348.8,231.8 C357.3,231.8 357.3,207.2 365.9,207.2 C374.5,207.2 374.5,183.9 383.1,183.9 C391.7,183.9 391.7,201.5 400.2,201.5 C408.8,201.5 408.8,243.5 417.4,243.5 C426.0,243.5 426.0,250.9 434.5,250.9 C443.1,250.9 443.1,236.3 451.7,236.3 C460.3,236.3 460.3,238.2 468.8,238.2 C477.4,238.2 477.4,246.3 486.0,246.3 C494.6,246.3 494.6,248.6 503.2,248.6 C511.7,248.6 511.7,252.2 520.3,252.2 C528.9,252.2 528.9,225.4 537.5,225.4 C546.0,225.4 546.0,181.2 554.6,181.2 C563.2,181.2 563.2,169.5 571.8,169.5 C580.3,169.5 580.3,169.3 588.9,169.3 C597.5,169.3 597.5,163.6 606.1,163.6 C614.7,163.6 614.7,198.3 623.2,198.3 C631.8,198.3 631.8,257.2 640.4,257.2 C649.0,257.2 649.0,252.2 657.5,252.2 C666.1,252.2 666.1,235.1 674.7,235.1 C683.3,235.1 683.3,228.6 691.8,228.6 C700.4,228.6 700.4,245.3 709.0,245.3 C717.6,245.3 717.6,256.4 726.2,256.4 C734.7,256.4 734.7,238.5 743.3,238.5 C751.9,238.5 751.9,227.4 760.5,227.4 C769.0,227.4 769.0,227.9 777.6,227.9 C786.2,227.9 786.2,218.6 794.8,218.6 C803.3,218.6 803.3,143.7 811.9,143.7 C820.5,143.7 820.5,107.0 829.1,107.0 C837.7,107.0 837.7,156.3 846.2,156.3 C854.8,156.3 854.8,192.3 863.4,192.3 C872.0,192.3 872.0,170.0 880.5,170.0 C889.1,170.0 889.1,160.1 897.7,160.1 C906.3,160.1 906.3,142.2 914.8,142.2 C923.4,142.2 923.4,155.2 932.0,155.2 L932,280 L40,280 Z" fill="url(#fill)"/>
<path id="ridge" d="M40.0,275.8 C48.6,275.8 48.6,274.0 57.2,274.0 C65.7,274.0 65.7,235.5 74.3,235.5 C82.9,235.5 82.9,202.9 91.5,202.9 C100.0,202.9 100.0,181.4 108.6,181.4 C117.2,181.4 117.2,168.9 125.8,168.9 C134.3,168.9 134.3,173.2 142.9,173.2 C151.5,173.2 151.5,196.2 160.1,196.2 C168.7,196.2 168.7,228.6 177.2,228.6 C185.8,228.6 185.8,242.6 194.4,242.6 C203.0,242.6 203.0,235.1 211.5,235.1 C220.1,235.1 220.1,197.8 228.7,197.8 C237.3,197.8 237.3,161.2 245.8,161.2 C254.4,161.2 254.4,172.9 263.0,172.9 C271.6,172.9 271.6,197.2 280.2,197.2 C288.7,197.2 288.7,194.1 297.3,194.1 C305.9,194.1 305.9,208.3 314.5,208.3 C323.0,208.3 323.0,226.4 331.6,226.4 C340.2,226.4 340.2,231.8 348.8,231.8 C357.3,231.8 357.3,207.2 365.9,207.2 C374.5,207.2 374.5,183.9 383.1,183.9 C391.7,183.9 391.7,201.5 400.2,201.5 C408.8,201.5 408.8,243.5 417.4,243.5 C426.0,243.5 426.0,250.9 434.5,250.9 C443.1,250.9 443.1,236.3 451.7,236.3 C460.3,236.3 460.3,238.2 468.8,238.2 C477.4,238.2 477.4,246.3 486.0,246.3 C494.6,246.3 494.6,248.6 503.2,248.6 C511.7,248.6 511.7,252.2 520.3,252.2 C528.9,252.2 528.9,225.4 537.5,225.4 C546.0,225.4 546.0,181.2 554.6,181.2 C563.2,181.2 563.2,169.5 571.8,169.5 C580.3,169.5 580.3,169.3 588.9,169.3 C597.5,169.3 597.5,163.6 606.1,163.6 C614.7,163.6 614.7,198.3 623.2,198.3 C631.8,198.3 631.8,257.2 640.4,257.2 C649.0,257.2 649.0,252.2 657.5,252.2 C666.1,252.2 666.1,235.1 674.7,235.1 C683.3,235.1 683.3,228.6 691.8,228.6 C700.4,228.6 700.4,245.3 709.0,245.3 C717.6,245.3 717.6,256.4 726.2,256.4 C734.7,256.4 734.7,238.5 743.3,238.5 C751.9,238.5 751.9,227.4 760.5,227.4 C769.0,227.4 769.0,227.9 777.6,227.9 C786.2,227.9 786.2,218.6 794.8,218.6 C803.3,218.6 803.3,143.7 811.9,143.7 C820.5,143.7 820.5,107.0 829.1,107.0 C837.7,107.0 837.7,156.3 846.2,156.3 C854.8,156.3 854.8,192.3 863.4,192.3 C872.0,192.3 872.0,170.0 880.5,170.0 C889.1,170.0 889.1,160.1 897.7,160.1 C906.3,160.1 906.3,142.2 914.8,142.2 C923.4,142.2 923.4,155.2 932.0,155.2" fill="none" stroke="#3643ba" stroke-width="2.5" stroke-linejoin="round" stroke-linecap="round"/>
<line x1="40" x2="932" y1="280" y2="280" stroke="#d1d9e0"/>
<line x1="932.0" x2="932.0" y1="155.2" y2="280" stroke="#59636e" stroke-dasharray="2 3" opacity=".7"/>
<rect x="928.0" y="151.2" width="8" height="8" fill="#ffffff" stroke="#e8590c" stroke-width="2" transform="rotate(45 932.0 155.2)"/>
<rect x="911.8" y="139.2" width="6" height="6" fill="#ffffff" stroke="#e8590c" stroke-width="1.5" transform="rotate(45 914.8 142.2)"/>
<rect x="894.7" y="157.1" width="6" height="6" fill="#ffffff" stroke="#e8590c" stroke-width="1.5" transform="rotate(45 897.7 160.1)"/>
<rect x="860.4" y="189.3" width="6" height="6" fill="#ffffff" stroke="#e8590c" stroke-width="1.5" transform="rotate(45 863.4 192.3)"/>
<rect x="843.2" y="153.3" width="6" height="6" fill="#ffffff" stroke="#e8590c" stroke-width="1.5" transform="rotate(45 846.2 156.3)"/>
<rect x="826.1" y="104.0" width="6" height="6" fill="#ffffff" stroke="#e8590c" stroke-width="1.5" transform="rotate(45 829.1 107.0)"/>
<line x1="777.6" x2="777.6" y1="227.9" y2="280" stroke="#59636e" stroke-dasharray="2 3" opacity=".7"/>
<rect x="773.6" y="223.9" width="8" height="8" fill="#ffffff" stroke="#e8590c" stroke-width="2" transform="rotate(45 777.6 227.9)"/>
<rect x="706.0" y="242.3" width="6" height="6" fill="#ffffff" stroke="#e8590c" stroke-width="1.5" transform="rotate(45 709.0 245.3)"/>
<rect x="671.7" y="232.1" width="6" height="6" fill="#ffffff" stroke="#e8590c" stroke-width="1.5" transform="rotate(45 674.7 235.1)"/>
<rect x="637.4" y="254.2" width="6" height="6" fill="#ffffff" stroke="#e8590c" stroke-width="1.5" transform="rotate(45 640.4 257.2)"/>
<line x1="571.8" x2="571.8" y1="169.5" y2="280" stroke="#59636e" stroke-dasharray="2 3" opacity=".7"/>
<rect x="567.8" y="165.5" width="8" height="8" fill="#ffffff" stroke="#e8590c" stroke-width="2" transform="rotate(45 571.8 169.5)"/>
<rect x="551.6" y="178.2" width="6" height="6" fill="#ffffff" stroke="#e8590c" stroke-width="1.5" transform="rotate(45 554.6 181.2)"/>
<rect x="431.5" y="247.9" width="6" height="6" fill="#ffffff" stroke="#e8590c" stroke-width="1.5" transform="rotate(45 434.5 250.9)"/>
<line x1="400.2" x2="400.2" y1="201.5" y2="280" stroke="#59636e" stroke-dasharray="2 3" opacity=".7"/>
<rect x="396.2" y="197.5" width="8" height="8" fill="#ffffff" stroke="#e8590c" stroke-width="2" transform="rotate(45 400.2 201.5)"/>
<rect x="294.3" y="191.1" width="6" height="6" fill="#ffffff" stroke="#e8590c" stroke-width="1.5" transform="rotate(45 297.3 194.1)"/>
<rect x="277.2" y="194.2" width="6" height="6" fill="#ffffff" stroke="#e8590c" stroke-width="1.5" transform="rotate(45 280.2 197.2)"/>
<rect x="260.0" y="169.9" width="6" height="6" fill="#ffffff" stroke="#e8590c" stroke-width="1.5" transform="rotate(45 263.0 172.9)"/>
<text x="878.6" y="310" fill="#59636e" font-size="10" text-anchor="middle"><tspan fill="#e8590c">◆</tspan> Laya vs Jev +2</text>
<text x="571.8" y="296" fill="#59636e" font-size="10" text-anchor="middle"><tspan fill="#e8590c">◆</tspan> The Hidden Tax on…</text>
<text x="400.2" y="296" fill="#59636e" font-size="10" text-anchor="middle"><tspan fill="#e8590c">◆</tspan> Reverse-Engineering… +1</text>
<line x1="829.1" x2="829.1" y1="107.0" y2="83.0" stroke="#1f2328" stroke-width="1.5"/><path d="M829.1,83.0 l15,5 l-15,5 z" fill="#cf222e"/>
<text x="829.1" y="77.0" fill="#1f2328" font-size="11" font-weight="600" text-anchor="end">SUMMIT · 769 · Aug 16</text>
<text x="40" y="296" fill="#59636e" font-size="10">START · Sep 2025</text>
<text x="932" y="296" fill="#59636e" font-size="10" text-anchor="end">FINISH · TODAY</text>
<rect x="930" y="244" width="5" height="5" fill="#1f2328"/>
<rect x="935" y="244" width="5" height="5" fill="#ffffff"/>
<rect x="930" y="249" width="5" height="5" fill="#ffffff"/>
<rect x="935" y="249" width="5" height="5" fill="#1f2328"/>
<rect x="930" y="254" width="5" height="5" fill="#1f2328"/>
<rect x="935" y="254" width="5" height="5" fill="#ffffff"/>
<rect x="930" y="259" width="5" height="5" fill="#ffffff"/>
<rect x="935" y="259" width="5" height="5" fill="#1f2328"/>
<line x1="930" x2="930" y1="244" y2="280" stroke="#1f2328"/>
<g transform="translate(37,0)"><g><ellipse rx="3.2" ry="1.6" fill="#d9480f" opacity=".8"/><animateTransform attributeName="transform" type="translate" values="0,-10;-14,140;0,280" dur="6s" begin="-0.0s" repeatCount="indefinite"/><animate attributeName="opacity" values="0;1;1;0" keyTimes="0;.1;.85;1" dur="6s" begin="-0.0s" repeatCount="indefinite"/></g></g>
<g transform="translate(188,0)"><g><ellipse rx="3.2" ry="1.6" fill="#d9480f" opacity=".8"/><animateTransform attributeName="transform" type="translate" values="0,-10;14,140;0,280" dur="7s" begin="-0.7s" repeatCount="indefinite"/><animate attributeName="opacity" values="0;1;1;0" keyTimes="0;.1;.85;1" dur="7s" begin="-0.7s" repeatCount="indefinite"/></g></g>
<g transform="translate(339,0)"><g><ellipse rx="3.2" ry="1.6" fill="#d9480f" opacity=".8"/><animateTransform attributeName="transform" type="translate" values="0,-10;-14,140;0,280" dur="8s" begin="-1.4s" repeatCount="indefinite"/><animate attributeName="opacity" values="0;1;1;0" keyTimes="0;.1;.85;1" dur="8s" begin="-1.4s" repeatCount="indefinite"/></g></g>
<g transform="translate(490,0)"><g><ellipse rx="3.2" ry="1.6" fill="#d9480f" opacity=".8"/><animateTransform attributeName="transform" type="translate" values="0,-10;14,140;0,280" dur="9s" begin="-2.1s" repeatCount="indefinite"/><animate attributeName="opacity" values="0;1;1;0" keyTimes="0;.1;.85;1" dur="9s" begin="-2.1s" repeatCount="indefinite"/></g></g>
<g transform="translate(641,0)"><g><ellipse rx="3.2" ry="1.6" fill="#d9480f" opacity=".8"/><animateTransform attributeName="transform" type="translate" values="0,-10;-14,140;0,280" dur="10s" begin="-2.8s" repeatCount="indefinite"/><animate attributeName="opacity" values="0;1;1;0" keyTimes="0;.1;.85;1" dur="10s" begin="-2.8s" repeatCount="indefinite"/></g></g>
<g transform="translate(792,0)"><g><ellipse rx="3.2" ry="1.6" fill="#d9480f" opacity=".8"/><animateTransform attributeName="transform" type="translate" values="0,-10;14,140;0,280" dur="6s" begin="-3.5s" repeatCount="indefinite"/><animate attributeName="opacity" values="0;1;1;0" keyTimes="0;.1;.85;1" dur="6s" begin="-3.5s" repeatCount="indefinite"/></g></g>
<g transform="translate(943,0)"><g><ellipse rx="3.2" ry="1.6" fill="#d9480f" opacity=".8"/><animateTransform attributeName="transform" type="translate" values="0,-10;-14,140;0,280" dur="7s" begin="-4.2s" repeatCount="indefinite"/><animate attributeName="opacity" values="0;1;1;0" keyTimes="0;.1;.85;1" dur="7s" begin="-4.2s" repeatCount="indefinite"/></g></g>
<g transform="translate(134,0)"><g><ellipse rx="3.2" ry="1.6" fill="#d9480f" opacity=".8"/><animateTransform attributeName="transform" type="translate" values="0,-10;14,140;0,280" dur="8s" begin="-4.9s" repeatCount="indefinite"/><animate attributeName="opacity" values="0;1;1;0" keyTimes="0;.1;.85;1" dur="8s" begin="-4.9s" repeatCount="indefinite"/></g></g>
<g transform="translate(285,0)"><g><ellipse rx="3.2" ry="1.6" fill="#d9480f" opacity=".8"/><animateTransform attributeName="transform" type="translate" values="0,-10;-14,140;0,280" dur="9s" begin="-5.6s" repeatCount="indefinite"/><animate attributeName="opacity" values="0;1;1;0" keyTimes="0;.1;.85;1" dur="9s" begin="-5.6s" repeatCount="indefinite"/></g></g>
<g transform="translate(436,0)"><g><ellipse rx="3.2" ry="1.6" fill="#d9480f" opacity=".8"/><animateTransform attributeName="transform" type="translate" values="0,-10;14,140;0,280" dur="10s" begin="-6.3s" repeatCount="indefinite"/><animate attributeName="opacity" values="0;1;1;0" keyTimes="0;.1;.85;1" dur="10s" begin="-6.3s" repeatCount="indefinite"/></g></g>
<g transform="translate(587,0)"><g><ellipse rx="3.2" ry="1.6" fill="#d9480f" opacity=".8"/><animateTransform attributeName="transform" type="translate" values="0,-10;-14,140;0,280" dur="6s" begin="-1.0s" repeatCount="indefinite"/><animate attributeName="opacity" values="0;1;1;0" keyTimes="0;.1;.85;1" dur="6s" begin="-1.0s" repeatCount="indefinite"/></g></g>
<g transform="translate(738,0)"><g><ellipse rx="3.2" ry="1.6" fill="#d9480f" opacity=".8"/><animateTransform attributeName="transform" type="translate" values="0,-10;14,140;0,280" dur="7s" begin="-0.7s" repeatCount="indefinite"/><animate attributeName="opacity" values="0;1;1;0" keyTimes="0;.1;.85;1" dur="7s" begin="-0.7s" repeatCount="indefinite"/></g></g>
<g transform="translate(889,0)"><g><ellipse rx="3.2" ry="1.6" fill="#d9480f" opacity=".8"/><animateTransform attributeName="transform" type="translate" values="0,-10;-14,140;0,280" dur="8s" begin="-0.4s" repeatCount="indefinite"/><animate attributeName="opacity" values="0;1;1;0" keyTimes="0;.1;.85;1" dur="8s" begin="-0.4s" repeatCount="indefinite"/></g></g>
<g transform="translate(80,0)"><g><ellipse rx="3.2" ry="1.6" fill="#d9480f" opacity=".8"/><animateTransform attributeName="transform" type="translate" values="0,-10;14,140;0,280" dur="9s" begin="-0.1s" repeatCount="indefinite"/><animate attributeName="opacity" values="0;1;1;0" keyTimes="0;.1;.85;1" dur="9s" begin="-0.1s" repeatCount="indefinite"/></g></g>
<g transform="translate(231,0)"><g><ellipse rx="3.2" ry="1.6" fill="#d9480f" opacity=".8"/><animateTransform attributeName="transform" type="translate" values="0,-10;-14,140;0,280" dur="10s" begin="-9.8s" repeatCount="indefinite"/><animate attributeName="opacity" values="0;1;1;0" keyTimes="0;.1;.85;1" dur="10s" begin="-9.8s" repeatCount="indefinite"/></g></g>
<g transform="translate(382,0)"><g><ellipse rx="3.2" ry="1.6" fill="#d9480f" opacity=".8"/><animateTransform attributeName="transform" type="translate" values="0,-10;14,140;0,280" dur="6s" begin="-4.5s" repeatCount="indefinite"/><animate attributeName="opacity" values="0;1;1;0" keyTimes="0;.1;.85;1" dur="6s" begin="-4.5s" repeatCount="indefinite"/></g></g>
<g transform="translate(533,0)"><g><ellipse rx="3.2" ry="1.6" fill="#d9480f" opacity=".8"/><animateTransform attributeName="transform" type="translate" values="0,-10;-14,140;0,280" dur="7s" begin="-4.2s" repeatCount="indefinite"/><animate attributeName="opacity" values="0;1;1;0" keyTimes="0;.1;.85;1" dur="7s" begin="-4.2s" repeatCount="indefinite"/></g></g>
<g transform="translate(684,0)"><g><ellipse rx="3.2" ry="1.6" fill="#d9480f" opacity=".8"/><animateTransform attributeName="transform" type="translate" values="0,-10;14,140;0,280" dur="8s" begin="-3.9s" repeatCount="indefinite"/><animate attributeName="opacity" values="0;1;1;0" keyTimes="0;.1;.85;1" dur="8s" begin="-3.9s" repeatCount="indefinite"/></g></g>
<g><circle r="28" fill="url(#glow)"/><path d="M-6,-3 L-46,0 L-6,3 Z" fill="url(#beam)" transform="scale(-1,1)"/><path d="M4,-2 L34,-13 L34,9 Z" fill="url(#beam)"/><circle r="5" fill="#e8590c" stroke="#ffffff" stroke-width="2"/><animateMotion dur="8s" repeatCount="indefinite" rotate="auto" calcMode="linear"><mpath href="#ridge" xlink:href="#ridge" xmlns:xlink="http://www.w3.org/1999/xlink"/></animateMotion></g>
<line x1="40" x2="932" y1="318" y2="318" stroke="#d1d9e0"/>
<text x="40.0" y="344" fill="#59636e" font-size="9.5" letter-spacing="1.2">DISTANCE</text><text x="40.0" y="368" fill="#1f2328" font-size="20" font-weight="800">53 wk</text>
<text x="188.7" y="344" fill="#59636e" font-size="9.5" letter-spacing="1.2">ELEVATION</text><text x="188.7" y="368" fill="#1f2328" font-size="20" font-weight="800">4,861</text>
<text x="337.3" y="344" fill="#59636e" font-size="9.5" letter-spacing="1.2">ACTIVE DAYS</text><text x="337.3" y="368" fill="#1f2328" font-size="20" font-weight="800">203/371</text>
<text x="486.0" y="344" fill="#59636e" font-size="9.5" letter-spacing="1.2">LONGEST STREAK</text><text x="486.0" y="368" fill="#1f2328" font-size="20" font-weight="800">19 d</text>
<text x="634.7" y="344" fill="#59636e" font-size="9.5" letter-spacing="1.2">CURRENT STREAK</text><text x="634.7" y="368" fill="#1f2328" font-size="20" font-weight="800">19 d</text>
<text x="783.3" y="344" fill="#59636e" font-size="9.5" letter-spacing="1.2">AID STATIONS</text><text x="783.3" y="368" fill="#1f2328" font-size="20" font-weight="800">40</text>
<text x="932" y="388" fill="#59636e" font-size="9" text-anchor="end" opacity=".8">updated 2026-10-03</text>
</g></svg>